<svg width="160" height="32" viewBox="0 0 160 32" fill="none" xmlns="http://www.w3.org/2000/svg">
<g clip-path="url(#clip0_1_2581)">
<path d="M12.5186 5.01285C10.6349 5.01285 10.0902 5.87622 10.0902 7.78046V10.9394H15.1149L14.6112 16.043H10.0922V31.5311H4.06225V16.043H0V10.9394H4.06225V7.8672C4.06225 2.71928 6.07093 7.99303e-05 11.6753 7.99303e-05C12.8497 -0.00274417 14.0233 0.0692687 15.189 0.21592V5.0189L12.5186 5.01285Z" fill="white"/>
<path d="M15.5326 20.5857C15.5326 14.8326 18.1698 10.4997 23.6961 10.4997C26.7101 10.4997 28.5509 12.1013 29.4313 14.0903V10.9394H35.2075V31.5311H29.4313V28.4165C28.5939 30.4075 26.7101 31.9648 23.6961 31.9648C18.1698 31.9648 15.5326 27.6379 15.5326 21.8788V20.5857ZM21.5606 21.9715C21.5606 25.0417 22.6479 27.0751 25.453 27.0751C27.9243 27.0751 29.1795 25.2152 29.1795 22.2741V20.2065C29.1795 17.2654 27.9243 15.4055 25.453 15.4055C22.6479 15.4055 21.5606 17.4389 21.5606 20.5091V21.9715Z" fill="white"/>
<path d="M47.7671 10.5057C50.1095 10.5057 52.3291 11.0261 53.5432 11.8895L52.2041 16.3032C50.9482 15.6851 49.5759 15.3599 48.1848 15.351C44.919 15.351 43.4998 17.2977 43.4998 20.6301V21.8404C43.4998 25.1729 44.9229 27.1195 48.1848 27.1195C49.5759 27.1104 50.9482 26.7854 52.2041 26.1673L53.5432 30.579C52.3291 31.4444 50.1115 31.9648 47.7671 31.9648C40.6908 31.9648 37.468 28.0272 37.468 21.7113V20.7592C37.468 14.4433 40.6908 10.5057 47.7671 10.5057Z" fill="white"/>
<path d="M54.3378 22.022V20.2065C54.3378 14.3667 57.5606 10.5239 64.1352 10.5239C70.3311 10.5239 73.0522 14.4171 73.0522 20.1278V23.4159H60.3638C60.4907 26.2279 61.7049 27.4826 65.0488 27.4826C67.3112 27.4826 69.6966 27.0065 71.4555 26.2279L72.5584 30.4943C70.9674 31.3617 67.7016 32.0092 64.8145 32.0092C57.1839 32.0072 54.3378 28.0736 54.3378 22.022ZM60.3658 19.3391H67.6509V18.8207C67.6509 16.5715 66.7724 14.7862 64.1372 14.7862C61.414 14.7883 60.3658 16.5634 60.3658 19.331V19.3391Z" fill="white"/>
<path d="M95.3975 21.8848C95.3975 27.6379 92.7193 31.9709 87.1988 31.9709C84.1848 31.9709 82.0922 30.4136 81.2548 28.4226V31.5372H75.5626V0.599183L81.5905 0.0343628V13.7918C82.469 11.9763 84.3957 10.5037 87.2008 10.5037C92.7271 10.5037 95.3995 14.8306 95.3995 20.5898L95.3975 21.8848ZM89.3695 20.4566C89.3695 17.5579 88.2822 15.3954 85.3932 15.3954C82.9219 15.3954 81.5827 17.2109 81.5827 20.154V22.3165C81.5827 25.2576 82.9219 27.0751 85.3932 27.0751C88.2822 27.0751 89.3695 24.9126 89.3695 22.0139V20.4566Z" fill="white"/>
<path d="M97.4141 21.7537V20.7168C97.4141 14.7882 100.68 10.5057 107.336 10.5057C113.993 10.5057 117.261 14.7882 117.261 20.7168V21.7537C117.261 27.6802 113.995 31.9648 107.338 31.9648C100.682 31.9648 97.4141 27.6802 97.4141 21.7537ZM111.231 20.2831C111.231 17.5579 110.142 15.3954 107.327 15.3954C104.512 15.3954 103.432 17.5579 103.432 20.2831V22.1874C103.432 24.9126 104.522 27.0751 107.327 27.0751C110.132 27.0751 111.231 24.9126 111.231 22.1874V20.2831Z" fill="white"/>
<path d="M119.266 21.7537V20.7168C119.266 14.7882 122.531 10.5057 129.188 10.5057C135.844 10.5057 139.11 14.7882 139.11 20.7168V21.7537C139.11 27.6802 135.844 31.9648 129.188 31.9648C122.531 31.9648 119.266 27.6802 119.266 21.7537ZM133.082 20.2831C133.082 17.5579 131.993 15.3954 129.188 15.3954C126.383 15.3954 125.295 17.5579 125.295 20.2831V22.1874C125.295 24.9126 126.383 27.0751 129.188 27.0751C131.993 27.0751 133.082 24.9126 133.082 22.1874V20.2831Z" fill="white"/>
<path d="M147.399 20.7592L153.343 10.9394H159.747L153.511 21.1062L159.999 31.5311H153.595L147.399 21.445V31.5311H141.369V0.599183L147.399 0.0343628V20.7592Z" fill="white"/>
</g>
<defs>
<clipPath id="clip0_1_2581">
<rect width="160" height="32" fill="white"/>
</clipPath>
</defs>
</svg>
